:SAMPLES-PER-SECOND 30
:FULLY-SPECIFIED
:DEGREES
183
root  34.86948088 36.52688875 -14.41263214 9.913176537 -2.745554209 5.29951334
lowerback  -7.693429947 -0.08496832848 -0.502714932
upperback  -4.079539776 0.5292459726 -5.014849663
thorax  0.1360740066 0.4668439329 -4.87618494
lowerneck  -3.964129925 -16.35449982 -10.81919956
upperneck  8.016160011 -22.33880043 11.46630001
head  5.55298996 -10.72189999 3.409990072
lclavicle  0 -4.497500157e-015 -2.743230041e-014
lhumerus  -47.58929825 29.99749947 60.44340134
lradius  0.01290552411 -6.507048965e-006 28.64909935
lwrist  4.824992743e-007 -3.790274832e-007 -31.32530022
lhand  -4.444376243e-031 -37.39049911 -10.64420033
lfingers  90 7.125020027 -90
lthumb  95.03917786 -25.46282472 101.5906279
rclavicle  0 -4.497500157e-015 -2.743230041e-014
rhumerus  28.42459869 -40.03020096 -19.51799965
rradius  -5.16745672e-007 2.214343908e-008 36.77280045
rwrist  -2.867388866e-005 0.05793939158 -173.2380066
rhand  -1.771090098e-031 4.527910233 -7.418739796
rfingers  -90 -7.125020027 -90
rthumb  -84.9842808 -8.63851772 -59.70133041
rfemur  -12.59790611 14.101264 11.46735954
rtibia  -1.801618218 -2.138335228 20.75337982
rfoot  0.2388388366 -22.13177872 -35.98636627
rtoes  3.835383386 19.64359766 -101.2782295
lfemur  -5.560814857 -18.1134243 -23.68572235
ltibia  6.07828474 -0.9947659969 9.189867973
lfoot  1.104027033 -21.51766586 36.2788353
ltoes  -8.663773519 -18.09572501 -116.1312943
184
root  34.87024082 36.52872101 -14.41647537 9.928618431 -2.76455307 5.301327705
lowerback  -7.68569994 -0.08082309365 -0.4999460578
upperback  -4.079730034 0.5347170234 -5.016580105
thorax  0.1320199966 0.467200011 -4.878399849
lowerneck  -3.978509903 -16.3477993 -10.80029964
upperneck  8.041370392 -22.32949829 11.44649982
head  5.557690144 -10.7170372 3.410062551
lclavicle  0 -4.497500157e-015 -2.743230041e-014
lhumerus  -47.58446121 30.0056057 60.43416595
lradius  0.01272563171 -6.507048965e-006 28.64409828
lwrist  4.824992743e-007 -3.790274832e-007 -31.28689957
lhand  -4.445669426e-031 -37.41230011 -10.62590027
lfingers  90 7.125020027 -90
lthumb  95.04530381 -25.44412997 101.6121489
rclavicle  0 -4.497500157e-015 -2.743230041e-014
rhumerus  28.40690041 -39.97489548 -19.47320175
rradius  -5.16745672e-007 2.214343908e-008 36.79330063
rwrist  -2.867388866e-005 0.05730936676 -173.1329956
rhand  -1.771604892e-031 4.73348999 -7.536709785
rfingers  -90 -7.125020027 -90
rthumb  -84.99697132 -8.550232453 -59.51006918
rfemur  -12.61518288 14.09810734 11.45654774
rtibia  -1.801454902 -2.156999826 20.73462105
rfoot  0.2545066178 -22.13083649 -35.96496201
rtoes  3.868106619 19.63742429 -101.375586
lfemur  -5.716372013 -18.10048485 -23.6359005
ltibia  5.982840538 -1.009156942 9.40848732
lfoot  1.122681975 -21.58570671 36.25473404
ltoes  -8.660704342 -18.09715588 -116.1214134
185
root  34.87105482 36.53056528 -14.41985003 9.942408562 -2.779402971 5.288157463
lowerback  -7.672060013 -0.08002412319 -0.4980292916
upperback  -4.088290215 0.5359759927 -5.023029804
thorax  0.1157549992 0.4679790139 -4.886320114
lowerneck  -3.969409943 -16.34140015 -10.81709957
upperneck  8.0623703 -22.3239975 11.46819973
head  5.566699982 -10.71259975 3.412757635
lclavicle  0 -4.497500157e-015 -2.743230041e-014
lhumerus  -47.57100296 29.97129059 60.44508743
lradius  0.01252473705 -6.507048965e-006 28.62000084
lwrist  4.824992743e-007 -3.790274832e-007 -31.26779938
lhand  -4.448129075e-031 -37.45370102 -10.60210037
lfingers  90 7.125020027 -90
lthumb  95.05933568 -25.41926486 101.6540681
rclavicle  0 -4.497500157e-015 -2.743230041e-014
rhumerus  28.40059853 -39.95360184 -19.48469925
rradius  -5.16745672e-007 2.214343908e-008 36.81819916
rwrist  -2.867388866e-005 0.05667963997 -173.0700073
rhand  -1.771699018e-031 4.77011013 -7.722139835
rfingers  -90 -7.125020027 -90
rthumb  -85.08363194 -8.392975405 -59.48834758
rfemur  -12.64550686 14.11868763 11.46395111
rtibia  -1.800991893 -2.140743971 20.74522781
rfoot  0.2454810888 -22.10433769 -35.98826218
rtoes  3.849342975 19.64097082 -101.3197578
lfemur  -5.851036549 -18.02247047 -23.56960869
ltibia  5.908483028 -0.9874014258 9.579752922
lfoot  1.138019323 -21.6977272 36.20890808
ltoes  -8.657150494 -18.0988119 -116.1099731
186
root  34.87187483 36.53711935 -14.42438862 9.988586426 -2.791303158 5.273483753
lowerback  -7.681849957 -0.04131153971 -0.5592030883
upperback  -4.069049835 0.5925989747 -5.029920101
thorax  0.1455300003 0.4974919856 -4.853980064
lowerneck  -3.901259899 -16.33609962 -10.72789955
upperneck  7.957029819 -22.3164978 11.46889973
head  5.512169838 -10.7116003 3.415481567
lclavicle  0 -4.497500157e-015 -2.743230041e-014
lhumerus  -47.54069901 30.08030128 60.39789963
lradius  0.01230229344 -6.507048965e-006 28.61039734
lwrist  4.824992743e-007 -3.790274832e-007 -31.10320091
lhand  -4.448813043e-031 -37.46519852 -10.59790039
lfingers  90 7.125020027 -90
lthumb  95.06378439 -25.41475872 101.6659647
rclavicle  0 -4.497500157e-015 -2.743230041e-014
rhumerus  28.29090118 -40.04779816 -19.39679909
rradius  -5.16745672e-007 2.214343908e-008 36.83029938
rwrist  -2.867388866e-005 0.05605103076 -173.1519928
rhand  -1.771966062e-031 4.872489929 -7.792300224
rfingers  -90 -7.125020027 -90
rthumb  -85.09620713 -8.339586016 -59.39396935
rfemur  -12.74864197 14.2550621 11.48034096
rtibia  -1.814649701 -2.077651262 20.82405281
rfoot  0.2076804638 -21.99490547 -36.08641052
rtoes  3.829649332 19.64467379 -101.2611729
lfemur  -6.152740479 -18.0669899 -23.4469471
ltibia  5.750285149 -1.057352304 9.955363274
lfoot  1.109960437 -21.66219902 36.09285355
ltoes  -8.670104453 -18.09277149 -116.1516784
187
root  34.87348481 36.53055927 -14.4238915 9.91927433 -2.791479349 5.282551765
lowerback  -7.681530476 -0.09537556022 -0.4516409636
upperback  -4.113339901 0.5121960044 -5.009029865
thorax  0.09313470125 0.4553450048 -4.900090218
lowerneck  -3.97954011 -16.31979942 -10.8781004
upperneck  8.108610153 -22.29320145 11.45740032
head  5.584839821 -10.69900036 3.415640116
lclavicle  0 -4.497500157e-015 -2.743230041e-014
lhumerus  -47.60540009 29.88999939 60.48730087
lradius  0.01205775794 -6.507048965e-006 28.64100075
lwrist  4.824992743e-007 -3.790274832e-007 -31.27129936
lhand  -4.450575814e-031 -37.49480057 -10.6008997
lfingers  90 7.125020027 -90
lthumb  95.07830736 -25.41653987 101.6979284
rclavicle  0 -4.497500157e-015 -2.743230041e-014
rhumerus  28.44179535 -39.87149429 -19.4971981
rradius  -5.16745672e-007 2.214343908e-008 36.82139969
rwrist  -2.867388866e-005 0.05542571098 -173.1869965
rhand  -1.772378997e-031 5.026649952 -7.755889893
rfingers  -90 -7.125020027 -90
rthumb  -85.04191836 -8.381552278 -59.24107898
rfemur  -12.68042088 14.12501144 11.4782896
rtibia  -1.806305647 -2.08564806 20.8351059
rfoot  0.2225209624 -22.04442406 -35.96021652
rtoes  3.824484556 19.64564163 -101.2458104
lfemur  -5.679932117 -17.92966461 -23.63389397
ltibia  6.011433125 -0.9309624434 9.342411995
lfoot  1.114754915 -21.72389793 36.17830658
ltoes  -8.686991686 -18.08487999 -116.2060672
188
root  34.87098574 36.52636911 -14.42830694 9.928578377 -2.811818838 5.282466412
lowerback  -7.704710007 -0.08496123552 -0.4364973903
upperback  -4.107830048 0.5256360173 -5.00992012
thorax  0.1128100008 0.4618830085 -4.908490181
lowerneck  -3.980400085 -16.31699944 -10.85499954
upperneck  8.089659691 -22.28720093 11.44279957
head  5.57407999 -10.69680023 3.410249949
lclavicle  0 -4.497500157e-015 -2.743230041e-014
lhumerus  -47.58890152 29.94809914 60.47639847
lradius  0.01179058291 -6.507048965e-006 28.60860252
lwrist  4.824992743e-007 -3.790274832e-007 -31.3348999
lhand  -4.452806601e-031 -37.53219986 -10.61380005
lfingers  90 7.125020027 -90
lthumb  95.09865684 -25.42774042 101.7390503
rclavicle  0 -4.497500157e-015 -2.743230041e-014
rhumerus  28.45599937 -39.90999985 -19.54610062
rradius  -5.16745672e-007 2.214343908e-008 36.85960007
rwrist  -2.867388866e-005 0.05480000377 -173.0180054
rhand  -1.7722015e-031 4.960979939 -7.817949772
rfingers  -90 -7.125020027 -90
rthumb  -85.08914758 -8.323590428 -59.3097431
rfemur  -12.72423649 14.19831181 11.47776508
rtibia  -1.804372549 -2.062179327 20.88111305
rfoot  0.2012563944 -22.00317001 -36.00504303
rtoes  3.837057134 19.64328323 -101.2832085
lfemur  -5.691253185 -18.00202942 -23.61871529
ltibia  6.013435841 -0.9583181143 9.341780663
lfoot  1.139157414 -21.64871597 36.30298615
ltoes  -8.67546533 -18.09026841 -116.1689418
